<mxfile host="app.diagrams.net" modified="2021-04-01T09:35:32.896Z" agent="5.0 (X11; Linux x86_64) AppleWebKit/537.36 (KHTML, like Gecko) Chrome/89.0.4389.90 Safari/537.36" etag="rihKHH2qGKrm5xTF-ms8" version="14.5.3" type="github">
  <diagram id="R2lEEEUBdFMjLlhIrx00" name="Page-1">
    <mxGraphModel dx="868" dy="462" grid="1" gridSize="10" guides="1" tooltips="1" connect="1" arrows="1" fold="1" page="1" pageScale="1" pageWidth="1920" pageHeight="1200" background="none" math="0" shadow="0" extFonts="Permanent Marker^https://fonts.googleapis.com/css?family=Permanent+Marker">
      <root>
        <mxCell id="0" />
        <mxCell id="1" parent="0" />
        <mxCell id="k6KYrHeAKpyfFp28Gv0Z-1" value="SysAdAcc" style="whiteSpace=wrap;html=1;align=center;" vertex="1" parent="1">
          <mxGeometry x="190" y="260" width="100" height="40" as="geometry" />
        </mxCell>
        <mxCell id="k6KYrHeAKpyfFp28Gv0Z-2" value="CusAcc" style="whiteSpace=wrap;html=1;align=center;" vertex="1" parent="1">
          <mxGeometry x="990" y="350" width="100" height="40" as="geometry" />
        </mxCell>
        <mxCell id="k6KYrHeAKpyfFp28Gv0Z-3" value="BusAcc" style="whiteSpace=wrap;html=1;align=center;" vertex="1" parent="1">
          <mxGeometry x="553" y="370" width="100" height="40" as="geometry" />
        </mxCell>
        <mxCell id="k6KYrHeAKpyfFp28Gv0Z-4" value="ResToken" style="whiteSpace=wrap;html=1;align=center;" vertex="1" parent="1">
          <mxGeometry x="1780" y="140" width="100" height="40" as="geometry" />
        </mxCell>
        <mxCell id="k6KYrHeAKpyfFp28Gv0Z-11" value="RegisteredQueue" style="whiteSpace=wrap;html=1;align=center;" vertex="1" parent="1">
          <mxGeometry x="190" y="900" width="100" height="40" as="geometry" />
        </mxCell>
        <mxCell id="k6KYrHeAKpyfFp28Gv0Z-12" value="ServicePacks" style="whiteSpace=wrap;html=1;align=center;" vertex="1" parent="1">
          <mxGeometry x="610" y="1330" width="100" height="40" as="geometry" />
        </mxCell>
        <mxCell id="k6KYrHeAKpyfFp28Gv0Z-13" value="Orders" style="whiteSpace=wrap;html=1;align=center;" vertex="1" parent="1">
          <mxGeometry x="1100" y="1240" width="100" height="40" as="geometry" />
        </mxCell>
        <mxCell id="k6KYrHeAKpyfFp28Gv0Z-14" value="RegisteredSP" style="whiteSpace=wrap;html=1;align=center;" vertex="1" parent="1">
          <mxGeometry x="590" y="800" width="100" height="40" as="geometry" />
        </mxCell>
        <mxCell id="k6KYrHeAKpyfFp28Gv0Z-15" value="Revenue" style="whiteSpace=wrap;html=1;align=center;" vertex="1" parent="1">
          <mxGeometry x="990" y="740" width="100" height="40" as="geometry" />
        </mxCell>
        <mxCell id="k6KYrHeAKpyfFp28Gv0Z-16" value="Sales" style="whiteSpace=wrap;html=1;align=center;" vertex="1" parent="1">
          <mxGeometry x="990" y="660" width="100" height="40" as="geometry" />
        </mxCell>
        <mxCell id="k6KYrHeAKpyfFp28Gv0Z-17" value="Expenses" style="whiteSpace=wrap;html=1;align=center;" vertex="1" parent="1">
          <mxGeometry x="1000" y="810" width="100" height="40" as="geometry" />
        </mxCell>
        <mxCell id="k6KYrHeAKpyfFp28Gv0Z-18" value="Profit" style="whiteSpace=wrap;html=1;align=center;" vertex="1" parent="1">
          <mxGeometry x="1000" y="880" width="100" height="40" as="geometry" />
        </mxCell>
        <mxCell id="k6KYrHeAKpyfFp28Gv0Z-19" value="Password" style="ellipse;whiteSpace=wrap;html=1;align=center;" vertex="1" parent="1">
          <mxGeometry x="10" y="150" width="100" height="40" as="geometry" />
        </mxCell>
        <mxCell id="k6KYrHeAKpyfFp28Gv0Z-21" value="" style="endArrow=none;html=1;rounded=0;exitX=0.5;exitY=1;exitDx=0;exitDy=0;entryX=0.5;entryY=0;entryDx=0;entryDy=0;" edge="1" parent="1" source="k6KYrHeAKpyfFp28Gv0Z-19" target="k6KYrHeAKpyfFp28Gv0Z-1">
          <mxGeometry relative="1" as="geometry">
            <mxPoint x="190" y="190" as="sourcePoint" />
            <mxPoint x="350" y="190" as="targetPoint" />
          </mxGeometry>
        </mxCell>
        <mxCell id="k6KYrHeAKpyfFp28Gv0Z-22" value="Profile" style="ellipse;whiteSpace=wrap;html=1;align=center;" vertex="1" parent="1">
          <mxGeometry x="190" y="170" width="100" height="40" as="geometry" />
        </mxCell>
        <mxCell id="k6KYrHeAKpyfFp28Gv0Z-23" value="ID" style="ellipse;whiteSpace=wrap;html=1;align=center;fontStyle=4;" vertex="1" parent="1">
          <mxGeometry x="10" y="210" width="100" height="40" as="geometry" />
        </mxCell>
        <mxCell id="k6KYrHeAKpyfFp28Gv0Z-24" value="" style="endArrow=none;html=1;rounded=0;exitX=1;exitY=0.5;exitDx=0;exitDy=0;entryX=0.5;entryY=0;entryDx=0;entryDy=0;" edge="1" parent="1" source="k6KYrHeAKpyfFp28Gv0Z-23" target="k6KYrHeAKpyfFp28Gv0Z-1">
          <mxGeometry relative="1" as="geometry">
            <mxPoint x="370" y="290" as="sourcePoint" />
            <mxPoint x="530" y="290" as="targetPoint" />
          </mxGeometry>
        </mxCell>
        <mxCell id="k6KYrHeAKpyfFp28Gv0Z-25" value="" style="endArrow=none;html=1;rounded=0;exitX=0.5;exitY=1;exitDx=0;exitDy=0;entryX=0.5;entryY=0;entryDx=0;entryDy=0;" edge="1" parent="1" source="k6KYrHeAKpyfFp28Gv0Z-22" target="k6KYrHeAKpyfFp28Gv0Z-1">
          <mxGeometry relative="1" as="geometry">
            <mxPoint x="370" y="290" as="sourcePoint" />
            <mxPoint x="530" y="290" as="targetPoint" />
          </mxGeometry>
        </mxCell>
        <mxCell id="k6KYrHeAKpyfFp28Gv0Z-26" value="Name" style="ellipse;whiteSpace=wrap;html=1;align=center;" vertex="1" parent="1">
          <mxGeometry x="90" y="60" width="100" height="40" as="geometry" />
        </mxCell>
        <mxCell id="k6KYrHeAKpyfFp28Gv0Z-34" value="PhoneNumber" style="ellipse;whiteSpace=wrap;html=1;align=center;" vertex="1" parent="1">
          <mxGeometry x="190" y="10" width="100" height="40" as="geometry" />
        </mxCell>
        <mxCell id="k6KYrHeAKpyfFp28Gv0Z-35" value="Email" style="ellipse;whiteSpace=wrap;html=1;align=center;" vertex="1" parent="1">
          <mxGeometry x="290" y="50" width="100" height="40" as="geometry" />
        </mxCell>
        <mxCell id="k6KYrHeAKpyfFp28Gv0Z-37" value="" style="endArrow=none;html=1;rounded=0;exitX=0.5;exitY=1;exitDx=0;exitDy=0;entryX=0.5;entryY=0;entryDx=0;entryDy=0;" edge="1" parent="1" source="k6KYrHeAKpyfFp28Gv0Z-26" target="k6KYrHeAKpyfFp28Gv0Z-22">
          <mxGeometry relative="1" as="geometry">
            <mxPoint x="370" y="30" as="sourcePoint" />
            <mxPoint x="530" y="30" as="targetPoint" />
          </mxGeometry>
        </mxCell>
        <mxCell id="k6KYrHeAKpyfFp28Gv0Z-39" value="" style="endArrow=none;html=1;rounded=0;exitX=0.5;exitY=1;exitDx=0;exitDy=0;entryX=0.5;entryY=0;entryDx=0;entryDy=0;" edge="1" parent="1" source="k6KYrHeAKpyfFp28Gv0Z-34" target="k6KYrHeAKpyfFp28Gv0Z-22">
          <mxGeometry relative="1" as="geometry">
            <mxPoint x="370" y="30" as="sourcePoint" />
            <mxPoint x="530" y="30" as="targetPoint" />
          </mxGeometry>
        </mxCell>
        <mxCell id="k6KYrHeAKpyfFp28Gv0Z-40" value="" style="endArrow=none;html=1;rounded=0;exitX=0;exitY=1;exitDx=0;exitDy=0;entryX=0.5;entryY=0;entryDx=0;entryDy=0;" edge="1" parent="1" source="k6KYrHeAKpyfFp28Gv0Z-35" target="k6KYrHeAKpyfFp28Gv0Z-22">
          <mxGeometry relative="1" as="geometry">
            <mxPoint x="370" y="30" as="sourcePoint" />
            <mxPoint x="530" y="30" as="targetPoint" />
          </mxGeometry>
        </mxCell>
        <mxCell id="k6KYrHeAKpyfFp28Gv0Z-44" value="Password" style="ellipse;whiteSpace=wrap;html=1;align=center;" vertex="1" parent="1">
          <mxGeometry x="383" y="260" width="100" height="40" as="geometry" />
        </mxCell>
        <mxCell id="k6KYrHeAKpyfFp28Gv0Z-45" value="ID" style="ellipse;whiteSpace=wrap;html=1;align=center;fontStyle=4;" vertex="1" parent="1">
          <mxGeometry x="403" y="320" width="100" height="40" as="geometry" />
        </mxCell>
        <mxCell id="k6KYrHeAKpyfFp28Gv0Z-46" value="Active" style="ellipse;whiteSpace=wrap;html=1;align=center;" vertex="1" parent="1">
          <mxGeometry x="403" y="200" width="100" height="40" as="geometry" />
        </mxCell>
        <mxCell id="k6KYrHeAKpyfFp28Gv0Z-47" value="Profile" style="ellipse;whiteSpace=wrap;html=1;align=center;" vertex="1" parent="1">
          <mxGeometry x="573" y="250" width="100" height="40" as="geometry" />
        </mxCell>
        <mxCell id="k6KYrHeAKpyfFp28Gv0Z-48" value="" style="endArrow=none;html=1;rounded=0;exitX=1;exitY=0.5;exitDx=0;exitDy=0;entryX=0.5;entryY=0;entryDx=0;entryDy=0;" edge="1" parent="1" source="k6KYrHeAKpyfFp28Gv0Z-45" target="k6KYrHeAKpyfFp28Gv0Z-3">
          <mxGeometry relative="1" as="geometry">
            <mxPoint x="413" y="240" as="sourcePoint" />
            <mxPoint x="573" y="240" as="targetPoint" />
          </mxGeometry>
        </mxCell>
        <mxCell id="k6KYrHeAKpyfFp28Gv0Z-49" value="" style="endArrow=none;html=1;rounded=0;exitX=1;exitY=0.5;exitDx=0;exitDy=0;entryX=0.5;entryY=0;entryDx=0;entryDy=0;" edge="1" parent="1" source="k6KYrHeAKpyfFp28Gv0Z-44" target="k6KYrHeAKpyfFp28Gv0Z-3">
          <mxGeometry relative="1" as="geometry">
            <mxPoint x="413" y="240" as="sourcePoint" />
            <mxPoint x="573" y="240" as="targetPoint" />
          </mxGeometry>
        </mxCell>
        <mxCell id="k6KYrHeAKpyfFp28Gv0Z-50" value="" style="endArrow=none;html=1;rounded=0;exitX=1;exitY=1;exitDx=0;exitDy=0;entryX=0.5;entryY=0;entryDx=0;entryDy=0;" edge="1" parent="1" source="k6KYrHeAKpyfFp28Gv0Z-46" target="k6KYrHeAKpyfFp28Gv0Z-3">
          <mxGeometry relative="1" as="geometry">
            <mxPoint x="413" y="240" as="sourcePoint" />
            <mxPoint x="573" y="240" as="targetPoint" />
          </mxGeometry>
        </mxCell>
        <mxCell id="k6KYrHeAKpyfFp28Gv0Z-51" value="" style="endArrow=none;html=1;rounded=0;entryX=0.5;entryY=1;entryDx=0;entryDy=0;exitX=0.5;exitY=0;exitDx=0;exitDy=0;" edge="1" parent="1" source="k6KYrHeAKpyfFp28Gv0Z-3" target="k6KYrHeAKpyfFp28Gv0Z-47">
          <mxGeometry relative="1" as="geometry">
            <mxPoint x="413" y="240" as="sourcePoint" />
            <mxPoint x="573" y="240" as="targetPoint" />
          </mxGeometry>
        </mxCell>
        <mxCell id="k6KYrHeAKpyfFp28Gv0Z-52" value="Name" style="ellipse;whiteSpace=wrap;html=1;align=center;" vertex="1" parent="1">
          <mxGeometry x="420" y="140" width="100" height="40" as="geometry" />
        </mxCell>
        <mxCell id="k6KYrHeAKpyfFp28Gv0Z-54" value="Address" style="ellipse;whiteSpace=wrap;html=1;align=center;" vertex="1" parent="1">
          <mxGeometry x="460" y="80" width="100" height="40" as="geometry" />
        </mxCell>
        <mxCell id="k6KYrHeAKpyfFp28Gv0Z-55" value="PhoneNumber" style="ellipse;whiteSpace=wrap;html=1;align=center;" vertex="1" parent="1">
          <mxGeometry x="503" y="10" width="100" height="40" as="geometry" />
        </mxCell>
        <mxCell id="k6KYrHeAKpyfFp28Gv0Z-56" value="Email" style="ellipse;whiteSpace=wrap;html=1;align=center;" vertex="1" parent="1">
          <mxGeometry x="590" y="60" width="100" height="40" as="geometry" />
        </mxCell>
        <mxCell id="k6KYrHeAKpyfFp28Gv0Z-57" value="Avatar" style="ellipse;whiteSpace=wrap;html=1;align=center;" vertex="1" parent="1">
          <mxGeometry x="620" y="110" width="100" height="40" as="geometry" />
        </mxCell>
        <mxCell id="k6KYrHeAKpyfFp28Gv0Z-58" value="" style="endArrow=none;html=1;rounded=0;exitX=1;exitY=1;exitDx=0;exitDy=0;entryX=0.5;entryY=0;entryDx=0;entryDy=0;" edge="1" parent="1" source="k6KYrHeAKpyfFp28Gv0Z-52" target="k6KYrHeAKpyfFp28Gv0Z-47">
          <mxGeometry relative="1" as="geometry">
            <mxPoint x="363" y="190" as="sourcePoint" />
            <mxPoint x="523" y="190" as="targetPoint" />
          </mxGeometry>
        </mxCell>
        <mxCell id="k6KYrHeAKpyfFp28Gv0Z-59" value="" style="endArrow=none;html=1;rounded=0;entryX=1;entryY=1;entryDx=0;entryDy=0;exitX=0.5;exitY=0;exitDx=0;exitDy=0;" edge="1" parent="1" source="k6KYrHeAKpyfFp28Gv0Z-47" target="k6KYrHeAKpyfFp28Gv0Z-54">
          <mxGeometry relative="1" as="geometry">
            <mxPoint x="363" y="190" as="sourcePoint" />
            <mxPoint x="523" y="190" as="targetPoint" />
          </mxGeometry>
        </mxCell>
        <mxCell id="k6KYrHeAKpyfFp28Gv0Z-60" value="" style="endArrow=none;html=1;rounded=0;exitX=0.5;exitY=1;exitDx=0;exitDy=0;entryX=0.5;entryY=0;entryDx=0;entryDy=0;" edge="1" parent="1" source="k6KYrHeAKpyfFp28Gv0Z-55" target="k6KYrHeAKpyfFp28Gv0Z-47">
          <mxGeometry relative="1" as="geometry">
            <mxPoint x="363" y="190" as="sourcePoint" />
            <mxPoint x="523" y="190" as="targetPoint" />
          </mxGeometry>
        </mxCell>
        <mxCell id="k6KYrHeAKpyfFp28Gv0Z-61" value="" style="endArrow=none;html=1;rounded=0;exitX=0;exitY=1;exitDx=0;exitDy=0;entryX=0.5;entryY=0;entryDx=0;entryDy=0;" edge="1" parent="1" source="k6KYrHeAKpyfFp28Gv0Z-56" target="k6KYrHeAKpyfFp28Gv0Z-47">
          <mxGeometry relative="1" as="geometry">
            <mxPoint x="363" y="190" as="sourcePoint" />
            <mxPoint x="523" y="190" as="targetPoint" />
          </mxGeometry>
        </mxCell>
        <mxCell id="k6KYrHeAKpyfFp28Gv0Z-62" value="" style="endArrow=none;html=1;rounded=0;entryX=0.5;entryY=1;entryDx=0;entryDy=0;exitX=0.5;exitY=0;exitDx=0;exitDy=0;" edge="1" parent="1" source="k6KYrHeAKpyfFp28Gv0Z-47" target="k6KYrHeAKpyfFp28Gv0Z-57">
          <mxGeometry relative="1" as="geometry">
            <mxPoint x="363" y="190" as="sourcePoint" />
            <mxPoint x="523" y="190" as="targetPoint" />
          </mxGeometry>
        </mxCell>
        <mxCell id="k6KYrHeAKpyfFp28Gv0Z-63" value="Password" style="ellipse;whiteSpace=wrap;html=1;align=center;" vertex="1" parent="1">
          <mxGeometry x="800" y="230" width="100" height="40" as="geometry" />
        </mxCell>
        <mxCell id="k6KYrHeAKpyfFp28Gv0Z-64" value="ID" style="ellipse;whiteSpace=wrap;html=1;align=center;fontStyle=4;" vertex="1" parent="1">
          <mxGeometry x="830" y="300" width="100" height="40" as="geometry" />
        </mxCell>
        <mxCell id="k6KYrHeAKpyfFp28Gv0Z-65" value="" style="endArrow=none;html=1;rounded=0;exitX=1;exitY=0.5;exitDx=0;exitDy=0;entryX=0.5;entryY=0;entryDx=0;entryDy=0;" edge="1" parent="1" source="k6KYrHeAKpyfFp28Gv0Z-64" target="k6KYrHeAKpyfFp28Gv0Z-2">
          <mxGeometry relative="1" as="geometry">
            <mxPoint x="820" y="180" as="sourcePoint" />
            <mxPoint x="980" y="180" as="targetPoint" />
          </mxGeometry>
        </mxCell>
        <mxCell id="k6KYrHeAKpyfFp28Gv0Z-66" value="" style="endArrow=none;html=1;rounded=0;exitX=1;exitY=1;exitDx=0;exitDy=0;entryX=0.5;entryY=0;entryDx=0;entryDy=0;" edge="1" parent="1" source="k6KYrHeAKpyfFp28Gv0Z-63" target="k6KYrHeAKpyfFp28Gv0Z-2">
          <mxGeometry relative="1" as="geometry">
            <mxPoint x="820" y="180" as="sourcePoint" />
            <mxPoint x="1010" y="220" as="targetPoint" />
          </mxGeometry>
        </mxCell>
        <mxCell id="k6KYrHeAKpyfFp28Gv0Z-67" value="Active" style="ellipse;whiteSpace=wrap;html=1;align=center;" vertex="1" parent="1">
          <mxGeometry x="820" y="180" width="100" height="40" as="geometry" />
        </mxCell>
        <mxCell id="k6KYrHeAKpyfFp28Gv0Z-68" value="Profile" style="ellipse;whiteSpace=wrap;html=1;align=center;" vertex="1" parent="1">
          <mxGeometry x="1010" y="240" width="100" height="40" as="geometry" />
        </mxCell>
        <mxCell id="k6KYrHeAKpyfFp28Gv0Z-69" value="" style="endArrow=none;html=1;rounded=0;entryX=0.5;entryY=1;entryDx=0;entryDy=0;exitX=0.5;exitY=0;exitDx=0;exitDy=0;" edge="1" parent="1" source="k6KYrHeAKpyfFp28Gv0Z-2" target="k6KYrHeAKpyfFp28Gv0Z-68">
          <mxGeometry relative="1" as="geometry">
            <mxPoint x="820" y="180" as="sourcePoint" />
            <mxPoint x="980" y="180" as="targetPoint" />
          </mxGeometry>
        </mxCell>
        <mxCell id="k6KYrHeAKpyfFp28Gv0Z-70" value="Name" style="ellipse;whiteSpace=wrap;html=1;align=center;" vertex="1" parent="1">
          <mxGeometry x="850" y="120" width="100" height="40" as="geometry" />
        </mxCell>
        <mxCell id="k6KYrHeAKpyfFp28Gv0Z-71" value="Address" style="ellipse;whiteSpace=wrap;html=1;align=center;" vertex="1" parent="1">
          <mxGeometry x="900" y="70" width="100" height="40" as="geometry" />
        </mxCell>
        <mxCell id="k6KYrHeAKpyfFp28Gv0Z-72" value="PhoneNumber" style="ellipse;whiteSpace=wrap;html=1;align=center;" vertex="1" parent="1">
          <mxGeometry x="980" y="20" width="100" height="40" as="geometry" />
        </mxCell>
        <mxCell id="k6KYrHeAKpyfFp28Gv0Z-73" value="Email" style="ellipse;whiteSpace=wrap;html=1;align=center;" vertex="1" parent="1">
          <mxGeometry x="1060" y="60" width="100" height="40" as="geometry" />
        </mxCell>
        <mxCell id="k6KYrHeAKpyfFp28Gv0Z-74" value="Avatar" style="ellipse;whiteSpace=wrap;html=1;align=center;" vertex="1" parent="1">
          <mxGeometry x="1090" y="140" width="100" height="40" as="geometry" />
        </mxCell>
        <mxCell id="k6KYrHeAKpyfFp28Gv0Z-75" value="" style="endArrow=none;html=1;rounded=0;exitX=1;exitY=1;exitDx=0;exitDy=0;entryX=0.5;entryY=0;entryDx=0;entryDy=0;" edge="1" parent="1" source="k6KYrHeAKpyfFp28Gv0Z-70" target="k6KYrHeAKpyfFp28Gv0Z-68">
          <mxGeometry relative="1" as="geometry">
            <mxPoint x="850" y="180" as="sourcePoint" />
            <mxPoint x="1010" y="180" as="targetPoint" />
          </mxGeometry>
        </mxCell>
        <mxCell id="k6KYrHeAKpyfFp28Gv0Z-76" value="" style="endArrow=none;html=1;rounded=0;exitX=1;exitY=1;exitDx=0;exitDy=0;entryX=0.5;entryY=0;entryDx=0;entryDy=0;" edge="1" parent="1" source="k6KYrHeAKpyfFp28Gv0Z-71" target="k6KYrHeAKpyfFp28Gv0Z-68">
          <mxGeometry relative="1" as="geometry">
            <mxPoint x="850" y="180" as="sourcePoint" />
            <mxPoint x="1010" y="180" as="targetPoint" />
          </mxGeometry>
        </mxCell>
        <mxCell id="k6KYrHeAKpyfFp28Gv0Z-77" value="" style="endArrow=none;html=1;rounded=0;exitX=0.5;exitY=1;exitDx=0;exitDy=0;entryX=0.5;entryY=0;entryDx=0;entryDy=0;" edge="1" parent="1" source="k6KYrHeAKpyfFp28Gv0Z-72" target="k6KYrHeAKpyfFp28Gv0Z-68">
          <mxGeometry relative="1" as="geometry">
            <mxPoint x="850" y="180" as="sourcePoint" />
            <mxPoint x="1010" y="180" as="targetPoint" />
          </mxGeometry>
        </mxCell>
        <mxCell id="k6KYrHeAKpyfFp28Gv0Z-78" value="" style="endArrow=none;html=1;rounded=0;entryX=0;entryY=1;entryDx=0;entryDy=0;exitX=0.5;exitY=0;exitDx=0;exitDy=0;" edge="1" parent="1" source="k6KYrHeAKpyfFp28Gv0Z-68" target="k6KYrHeAKpyfFp28Gv0Z-73">
          <mxGeometry relative="1" as="geometry">
            <mxPoint x="850" y="180" as="sourcePoint" />
            <mxPoint x="1010" y="180" as="targetPoint" />
          </mxGeometry>
        </mxCell>
        <mxCell id="k6KYrHeAKpyfFp28Gv0Z-79" value="" style="endArrow=none;html=1;rounded=0;entryX=0;entryY=1;entryDx=0;entryDy=0;exitX=0.5;exitY=0;exitDx=0;exitDy=0;" edge="1" parent="1" source="k6KYrHeAKpyfFp28Gv0Z-68" target="k6KYrHeAKpyfFp28Gv0Z-74">
          <mxGeometry relative="1" as="geometry">
            <mxPoint x="850" y="180" as="sourcePoint" />
            <mxPoint x="1010" y="180" as="targetPoint" />
          </mxGeometry>
        </mxCell>
        <mxCell id="k6KYrHeAKpyfFp28Gv0Z-80" value="RefreshToken" style="ellipse;whiteSpace=wrap;html=1;align=center;" vertex="1" parent="1">
          <mxGeometry x="1780" y="20" width="100" height="40" as="geometry" />
        </mxCell>
        <mxCell id="k6KYrHeAKpyfFp28Gv0Z-81" value="" style="endArrow=none;html=1;rounded=0;exitX=0.5;exitY=0;exitDx=0;exitDy=0;entryX=0.5;entryY=1;entryDx=0;entryDy=0;" edge="1" parent="1" source="k6KYrHeAKpyfFp28Gv0Z-4" target="k6KYrHeAKpyfFp28Gv0Z-80">
          <mxGeometry relative="1" as="geometry">
            <mxPoint x="1360" y="-30" as="sourcePoint" />
            <mxPoint x="1520" y="-30" as="targetPoint" />
          </mxGeometry>
        </mxCell>
        <mxCell id="k6KYrHeAKpyfFp28Gv0Z-82" value="" style="endArrow=none;html=1;rounded=0;exitX=1;exitY=1;exitDx=0;exitDy=0;entryX=0.5;entryY=0;entryDx=0;entryDy=0;" edge="1" parent="1" source="k6KYrHeAKpyfFp28Gv0Z-67" target="k6KYrHeAKpyfFp28Gv0Z-2">
          <mxGeometry relative="1" as="geometry">
            <mxPoint x="830" y="170" as="sourcePoint" />
            <mxPoint x="990" y="170" as="targetPoint" />
          </mxGeometry>
        </mxCell>
        <mxCell id="k6KYrHeAKpyfFp28Gv0Z-83" value="Website" style="ellipse;whiteSpace=wrap;html=1;align=center;" vertex="1" parent="1">
          <mxGeometry x="660" y="180" width="100" height="40" as="geometry" />
        </mxCell>
        <mxCell id="k6KYrHeAKpyfFp28Gv0Z-84" value="" style="endArrow=none;html=1;rounded=0;exitX=0.5;exitY=1;exitDx=0;exitDy=0;entryX=0.5;entryY=0;entryDx=0;entryDy=0;" edge="1" parent="1" source="k6KYrHeAKpyfFp28Gv0Z-83" target="k6KYrHeAKpyfFp28Gv0Z-47">
          <mxGeometry relative="1" as="geometry">
            <mxPoint x="580" y="300" as="sourcePoint" />
            <mxPoint x="740" y="300" as="targetPoint" />
          </mxGeometry>
        </mxCell>
        <mxCell id="k6KYrHeAKpyfFp28Gv0Z-85" value="Profile" style="ellipse;whiteSpace=wrap;html=1;align=center;" vertex="1" parent="1">
          <mxGeometry x="180" y="800" width="100" height="40" as="geometry" />
        </mxCell>
        <mxCell id="k6KYrHeAKpyfFp28Gv0Z-86" value="BusID" style="ellipse;whiteSpace=wrap;html=1;align=center;fontStyle=4;" vertex="1" parent="1">
          <mxGeometry x="30" y="850" width="100" height="40" as="geometry" />
        </mxCell>
        <mxCell id="k6KYrHeAKpyfFp28Gv0Z-87" value="Name" style="ellipse;whiteSpace=wrap;html=1;align=center;" vertex="1" parent="1">
          <mxGeometry x="60" y="740" width="100" height="40" as="geometry" />
        </mxCell>
        <mxCell id="k6KYrHeAKpyfFp28Gv0Z-88" value="Address" style="ellipse;whiteSpace=wrap;html=1;align=center;" vertex="1" parent="1">
          <mxGeometry x="90" y="680" width="100" height="40" as="geometry" />
        </mxCell>
        <mxCell id="k6KYrHeAKpyfFp28Gv0Z-89" value="PhoneNumber" style="ellipse;whiteSpace=wrap;html=1;align=center;" vertex="1" parent="1">
          <mxGeometry x="160" y="630" width="100" height="40" as="geometry" />
        </mxCell>
        <mxCell id="k6KYrHeAKpyfFp28Gv0Z-90" value="Email" style="ellipse;whiteSpace=wrap;html=1;align=center;" vertex="1" parent="1">
          <mxGeometry x="260" y="660" width="100" height="40" as="geometry" />
        </mxCell>
        <mxCell id="k6KYrHeAKpyfFp28Gv0Z-91" value="Website" style="ellipse;whiteSpace=wrap;html=1;align=center;" vertex="1" parent="1">
          <mxGeometry x="270" y="730" width="100" height="40" as="geometry" />
        </mxCell>
        <mxCell id="k6KYrHeAKpyfFp28Gv0Z-92" value="" style="endArrow=none;html=1;rounded=0;exitX=1;exitY=0.5;exitDx=0;exitDy=0;entryX=0.5;entryY=0;entryDx=0;entryDy=0;" edge="1" parent="1" source="k6KYrHeAKpyfFp28Gv0Z-86" target="k6KYrHeAKpyfFp28Gv0Z-11">
          <mxGeometry relative="1" as="geometry">
            <mxPoint x="250" y="870" as="sourcePoint" />
            <mxPoint x="410" y="870" as="targetPoint" />
          </mxGeometry>
        </mxCell>
        <mxCell id="k6KYrHeAKpyfFp28Gv0Z-93" value="" style="endArrow=none;html=1;rounded=0;exitX=0.5;exitY=1;exitDx=0;exitDy=0;entryX=0.5;entryY=0;entryDx=0;entryDy=0;" edge="1" parent="1" source="k6KYrHeAKpyfFp28Gv0Z-85" target="k6KYrHeAKpyfFp28Gv0Z-11">
          <mxGeometry relative="1" as="geometry">
            <mxPoint x="250" y="870" as="sourcePoint" />
            <mxPoint x="410" y="870" as="targetPoint" />
          </mxGeometry>
        </mxCell>
        <mxCell id="k6KYrHeAKpyfFp28Gv0Z-94" value="" style="endArrow=none;html=1;rounded=0;exitX=1;exitY=1;exitDx=0;exitDy=0;entryX=0.5;entryY=0;entryDx=0;entryDy=0;" edge="1" parent="1" source="k6KYrHeAKpyfFp28Gv0Z-87" target="k6KYrHeAKpyfFp28Gv0Z-85">
          <mxGeometry relative="1" as="geometry">
            <mxPoint x="250" y="870" as="sourcePoint" />
            <mxPoint x="220" y="760" as="targetPoint" />
          </mxGeometry>
        </mxCell>
        <mxCell id="k6KYrHeAKpyfFp28Gv0Z-95" value="" style="endArrow=none;html=1;rounded=0;exitX=1;exitY=1;exitDx=0;exitDy=0;entryX=0.5;entryY=0;entryDx=0;entryDy=0;" edge="1" parent="1" source="k6KYrHeAKpyfFp28Gv0Z-88" target="k6KYrHeAKpyfFp28Gv0Z-85">
          <mxGeometry relative="1" as="geometry">
            <mxPoint x="250" y="870" as="sourcePoint" />
            <mxPoint x="410" y="870" as="targetPoint" />
          </mxGeometry>
        </mxCell>
        <mxCell id="k6KYrHeAKpyfFp28Gv0Z-96" value="" style="endArrow=none;html=1;rounded=0;exitX=0.5;exitY=1;exitDx=0;exitDy=0;entryX=0.5;entryY=0;entryDx=0;entryDy=0;" edge="1" parent="1" source="k6KYrHeAKpyfFp28Gv0Z-89" target="k6KYrHeAKpyfFp28Gv0Z-85">
          <mxGeometry relative="1" as="geometry">
            <mxPoint x="250" y="870" as="sourcePoint" />
            <mxPoint x="410" y="870" as="targetPoint" />
          </mxGeometry>
        </mxCell>
        <mxCell id="k6KYrHeAKpyfFp28Gv0Z-97" value="" style="endArrow=none;html=1;rounded=0;exitX=0;exitY=1;exitDx=0;exitDy=0;entryX=0.5;entryY=0;entryDx=0;entryDy=0;" edge="1" parent="1" source="k6KYrHeAKpyfFp28Gv0Z-90" target="k6KYrHeAKpyfFp28Gv0Z-85">
          <mxGeometry relative="1" as="geometry">
            <mxPoint x="250" y="870" as="sourcePoint" />
            <mxPoint x="410" y="870" as="targetPoint" />
          </mxGeometry>
        </mxCell>
        <mxCell id="k6KYrHeAKpyfFp28Gv0Z-99" value="" style="endArrow=none;html=1;rounded=0;exitX=0.5;exitY=1;exitDx=0;exitDy=0;entryX=0.5;entryY=0;entryDx=0;entryDy=0;" edge="1" parent="1" source="k6KYrHeAKpyfFp28Gv0Z-91" target="k6KYrHeAKpyfFp28Gv0Z-85">
          <mxGeometry relative="1" as="geometry">
            <mxPoint x="250" y="870" as="sourcePoint" />
            <mxPoint x="410" y="870" as="targetPoint" />
          </mxGeometry>
        </mxCell>
        <mxCell id="k6KYrHeAKpyfFp28Gv0Z-102" value="BusID" style="ellipse;whiteSpace=wrap;html=1;align=center;fontStyle=4;" vertex="1" parent="1">
          <mxGeometry x="453" y="730" width="100" height="40" as="geometry" />
        </mxCell>
        <mxCell id="k6KYrHeAKpyfFp28Gv0Z-103" value="PackInfo" style="ellipse;whiteSpace=wrap;html=1;align=center;" vertex="1" parent="1">
          <mxGeometry x="620" y="1250" width="100" height="40" as="geometry" />
        </mxCell>
        <mxCell id="k6KYrHeAKpyfFp28Gv0Z-104" value="ID" style="ellipse;whiteSpace=wrap;html=1;align=center;fontStyle=4;" vertex="1" parent="1">
          <mxGeometry x="470" y="1270" width="100" height="40" as="geometry" />
        </mxCell>
        <mxCell id="k6KYrHeAKpyfFp28Gv0Z-105" value="Cost" style="ellipse;whiteSpace=wrap;html=1;align=center;" vertex="1" parent="1">
          <mxGeometry x="503" y="1190" width="100" height="40" as="geometry" />
        </mxCell>
        <mxCell id="k6KYrHeAKpyfFp28Gv0Z-106" value="Period" style="ellipse;whiteSpace=wrap;html=1;align=center;" vertex="1" parent="1">
          <mxGeometry x="620" y="1130" width="100" height="40" as="geometry" />
        </mxCell>
        <mxCell id="k6KYrHeAKpyfFp28Gv0Z-108" value="" style="endArrow=none;html=1;rounded=0;exitX=1;exitY=1;exitDx=0;exitDy=0;entryX=0.5;entryY=0;entryDx=0;entryDy=0;" edge="1" parent="1" source="k6KYrHeAKpyfFp28Gv0Z-104" target="k6KYrHeAKpyfFp28Gv0Z-12">
          <mxGeometry relative="1" as="geometry">
            <mxPoint x="620" y="1210" as="sourcePoint" />
            <mxPoint x="780" y="1210" as="targetPoint" />
          </mxGeometry>
        </mxCell>
        <mxCell id="k6KYrHeAKpyfFp28Gv0Z-109" value="" style="endArrow=none;html=1;rounded=0;exitX=0.5;exitY=1;exitDx=0;exitDy=0;entryX=0.5;entryY=0;entryDx=0;entryDy=0;" edge="1" parent="1" source="k6KYrHeAKpyfFp28Gv0Z-103" target="k6KYrHeAKpyfFp28Gv0Z-12">
          <mxGeometry relative="1" as="geometry">
            <mxPoint x="620" y="1210" as="sourcePoint" />
            <mxPoint x="780" y="1210" as="targetPoint" />
          </mxGeometry>
        </mxCell>
        <mxCell id="k6KYrHeAKpyfFp28Gv0Z-110" value="" style="endArrow=none;html=1;rounded=0;exitX=1;exitY=1;exitDx=0;exitDy=0;entryX=0.5;entryY=0;entryDx=0;entryDy=0;" edge="1" parent="1" source="k6KYrHeAKpyfFp28Gv0Z-105" target="k6KYrHeAKpyfFp28Gv0Z-103">
          <mxGeometry relative="1" as="geometry">
            <mxPoint x="620" y="1210" as="sourcePoint" />
            <mxPoint x="780" y="1210" as="targetPoint" />
          </mxGeometry>
        </mxCell>
        <mxCell id="k6KYrHeAKpyfFp28Gv0Z-111" value="" style="endArrow=none;html=1;rounded=0;exitX=0.5;exitY=1;exitDx=0;exitDy=0;entryX=0.5;entryY=0;entryDx=0;entryDy=0;" edge="1" parent="1" source="k6KYrHeAKpyfFp28Gv0Z-106" target="k6KYrHeAKpyfFp28Gv0Z-103">
          <mxGeometry relative="1" as="geometry">
            <mxPoint x="670" y="1190" as="sourcePoint" />
            <mxPoint x="780" y="1210" as="targetPoint" />
          </mxGeometry>
        </mxCell>
        <mxCell id="k6KYrHeAKpyfFp28Gv0Z-113" value="MaxOrders" style="ellipse;whiteSpace=wrap;html=1;align=center;" vertex="1" parent="1">
          <mxGeometry x="720" y="1190" width="100" height="40" as="geometry" />
        </mxCell>
        <mxCell id="k6KYrHeAKpyfFp28Gv0Z-114" value="" style="endArrow=none;html=1;rounded=0;entryX=0;entryY=0.5;entryDx=0;entryDy=0;exitX=0.5;exitY=0;exitDx=0;exitDy=0;" edge="1" parent="1" source="k6KYrHeAKpyfFp28Gv0Z-103" target="k6KYrHeAKpyfFp28Gv0Z-113">
          <mxGeometry relative="1" as="geometry">
            <mxPoint x="620" y="1210" as="sourcePoint" />
            <mxPoint x="780" y="1210" as="targetPoint" />
          </mxGeometry>
        </mxCell>
        <mxCell id="k6KYrHeAKpyfFp28Gv0Z-116" value="" style="endArrow=none;html=1;rounded=0;exitX=1;exitY=1;exitDx=0;exitDy=0;entryX=0.5;entryY=0;entryDx=0;entryDy=0;" edge="1" parent="1" source="k6KYrHeAKpyfFp28Gv0Z-102" target="k6KYrHeAKpyfFp28Gv0Z-14">
          <mxGeometry relative="1" as="geometry">
            <mxPoint x="620" y="730" as="sourcePoint" />
            <mxPoint x="780" y="730" as="targetPoint" />
          </mxGeometry>
        </mxCell>
        <mxCell id="k6KYrHeAKpyfFp28Gv0Z-118" value="PackID" style="ellipse;whiteSpace=wrap;html=1;align=center;fontStyle=4;" vertex="1" parent="1">
          <mxGeometry x="460" y="670" width="100" height="40" as="geometry" />
        </mxCell>
        <mxCell id="k6KYrHeAKpyfFp28Gv0Z-119" value="Ordinal" style="ellipse;whiteSpace=wrap;html=1;align=center;fontStyle=4;" vertex="1" parent="1">
          <mxGeometry x="500" y="610" width="100" height="40" as="geometry" />
        </mxCell>
        <mxCell id="k6KYrHeAKpyfFp28Gv0Z-120" value="" style="endArrow=none;html=1;rounded=0;exitX=1;exitY=1;exitDx=0;exitDy=0;entryX=0.5;entryY=0;entryDx=0;entryDy=0;" edge="1" parent="1" source="k6KYrHeAKpyfFp28Gv0Z-118" target="k6KYrHeAKpyfFp28Gv0Z-14">
          <mxGeometry relative="1" as="geometry">
            <mxPoint x="520" y="790" as="sourcePoint" />
            <mxPoint x="680" y="790" as="targetPoint" />
          </mxGeometry>
        </mxCell>
        <mxCell id="k6KYrHeAKpyfFp28Gv0Z-121" value="" style="endArrow=none;html=1;rounded=0;exitX=0.5;exitY=1;exitDx=0;exitDy=0;entryX=0.5;entryY=0;entryDx=0;entryDy=0;" edge="1" parent="1" source="k6KYrHeAKpyfFp28Gv0Z-119" target="k6KYrHeAKpyfFp28Gv0Z-14">
          <mxGeometry relative="1" as="geometry">
            <mxPoint x="520" y="790" as="sourcePoint" />
            <mxPoint x="680" y="790" as="targetPoint" />
          </mxGeometry>
        </mxCell>
        <mxCell id="k6KYrHeAKpyfFp28Gv0Z-122" value="Info" style="ellipse;whiteSpace=wrap;html=1;align=center;" vertex="1" parent="1">
          <mxGeometry x="620" y="690" width="100" height="40" as="geometry" />
        </mxCell>
        <mxCell id="k6KYrHeAKpyfFp28Gv0Z-123" value="" style="endArrow=none;html=1;rounded=0;entryX=0.5;entryY=1;entryDx=0;entryDy=0;exitX=0.5;exitY=0;exitDx=0;exitDy=0;" edge="1" parent="1" source="k6KYrHeAKpyfFp28Gv0Z-14" target="k6KYrHeAKpyfFp28Gv0Z-122">
          <mxGeometry relative="1" as="geometry">
            <mxPoint x="520" y="790" as="sourcePoint" />
            <mxPoint x="680" y="790" as="targetPoint" />
          </mxGeometry>
        </mxCell>
        <mxCell id="k6KYrHeAKpyfFp28Gv0Z-124" value="DateBegin" style="ellipse;whiteSpace=wrap;html=1;align=center;" vertex="1" parent="1">
          <mxGeometry x="580" y="570" width="100" height="40" as="geometry" />
        </mxCell>
        <mxCell id="k6KYrHeAKpyfFp28Gv0Z-125" value="DateEnd" style="ellipse;whiteSpace=wrap;html=1;align=center;" vertex="1" parent="1">
          <mxGeometry x="690" y="590" width="100" height="40" as="geometry" />
        </mxCell>
        <mxCell id="k6KYrHeAKpyfFp28Gv0Z-126" value="" style="endArrow=none;html=1;rounded=0;entryX=0.5;entryY=1;entryDx=0;entryDy=0;exitX=0.5;exitY=0;exitDx=0;exitDy=0;" edge="1" parent="1" source="k6KYrHeAKpyfFp28Gv0Z-122" target="k6KYrHeAKpyfFp28Gv0Z-124">
          <mxGeometry relative="1" as="geometry">
            <mxPoint x="520" y="740" as="sourcePoint" />
            <mxPoint x="680" y="740" as="targetPoint" />
          </mxGeometry>
        </mxCell>
        <mxCell id="k6KYrHeAKpyfFp28Gv0Z-127" value="" style="endArrow=none;html=1;rounded=0;entryX=0.5;entryY=1;entryDx=0;entryDy=0;exitX=0.5;exitY=0;exitDx=0;exitDy=0;" edge="1" parent="1" source="k6KYrHeAKpyfFp28Gv0Z-122" target="k6KYrHeAKpyfFp28Gv0Z-125">
          <mxGeometry relative="1" as="geometry">
            <mxPoint x="520" y="740" as="sourcePoint" />
            <mxPoint x="680" y="740" as="targetPoint" />
          </mxGeometry>
        </mxCell>
        <mxCell id="k6KYrHeAKpyfFp28Gv0Z-128" value="Pay" style="ellipse;whiteSpace=wrap;html=1;align=center;" vertex="1" parent="1">
          <mxGeometry x="740" y="650" width="100" height="40" as="geometry" />
        </mxCell>
        <mxCell id="k6KYrHeAKpyfFp28Gv0Z-129" value="" style="endArrow=none;html=1;rounded=0;entryX=0;entryY=1;entryDx=0;entryDy=0;exitX=0.5;exitY=0;exitDx=0;exitDy=0;" edge="1" parent="1" source="k6KYrHeAKpyfFp28Gv0Z-122" target="k6KYrHeAKpyfFp28Gv0Z-128">
          <mxGeometry relative="1" as="geometry">
            <mxPoint x="520" y="740" as="sourcePoint" />
            <mxPoint x="680" y="740" as="targetPoint" />
          </mxGeometry>
        </mxCell>
        <mxCell id="k6KYrHeAKpyfFp28Gv0Z-134" value="Attribute" style="ellipse;whiteSpace=wrap;html=1;align=center;" vertex="1" parent="1">
          <mxGeometry x="1010" y="1070" width="100" height="40" as="geometry" />
        </mxCell>
        <mxCell id="k6KYrHeAKpyfFp28Gv0Z-135" value="Attribute" style="ellipse;whiteSpace=wrap;html=1;align=center;fontStyle=4;" vertex="1" parent="1">
          <mxGeometry x="960" y="1160" width="100" height="40" as="geometry" />
        </mxCell>
      </root>
    </mxGraphModel>
  </diagram>
</mxfile>
